<?xml version="1.0" standalone="no"?><!DOCTYPE svg PUBLIC "-//W3C//DTD SVG 1.1//EN" "http://www.w3.org/Graphics/SVG/1.1/DTD/svg11.dtd"><svg class="icon" width="200px" height="200.00px" viewBox="0 0 1024 1024" version="1.1" xmlns="http://www.w3.org/2000/svg"><path d="M512 512m-512 0a512 512 0 1 0 1024 0 512 512 0 1 0-1024 0Z" fill="#d9e7ff" /><path d="M190.900332 335.725335m38.786275-6.839067l349.076471-61.5516q38.786275-6.839067 45.625341 31.947208l84.34849 478.364053q6.839067 38.786275-31.947208 45.625341l-349.076471 61.5516q-38.786275 6.839067-45.625342-31.947207l-84.348489-478.364054q-6.839067-38.786275 31.947208-45.625341Z" fill="#86b8fa" /><path d="M301.948718 249.435897m39.384615 0l354.461539 0q39.384615 0 39.384615 39.384616l0 485.74359q0 39.384615-39.384615 39.384615l-354.461539 0q-39.384615 0-39.384615-39.384615l0-485.74359q0-39.384615 39.384615-39.384616Z" fill="#FFFFFF" /><path d="M380.717949 380.717949m13.128205 0l236.307692 0q13.128205 0 13.128205 13.128205l0 0q0 13.128205-13.128205 13.128205l-236.307692 0q-13.128205 0-13.128205-13.128205l0 0q0-13.128205 13.128205-13.128205Z" fill="#DEE8FA" /><path d="M380.717949 485.74359m13.128205 0l236.307692 0q13.128205 0 13.128205 13.128205l0 0q0 13.128205-13.128205 13.128205l-236.307692 0q-13.128205 0-13.128205-13.128205l0 0q0-13.128205 13.128205-13.128205Z" fill="#DEE8FA" /><path d="M380.717949 590.769231m13.128205 0l78.769231 0q13.128205 0 13.128205 13.128205l0 0q0 13.128205-13.128205 13.128205l-78.769231 0q-13.128205 0-13.128205-13.128205l0 0q0-13.128205 13.128205-13.128205Z" fill="#DEE8FA" /><path d="M636.717949 846.769231c79.753846 0 144.410256-64.65641 144.410256-144.410257s-64.65641-144.410256-144.410256-144.410256-144.410256 64.65641-144.410257 144.410256 64.65641 144.410256 144.410257 144.410257z m0-39.384616a105.025641 105.025641 0 1 1 0-210.051282 105.025641 105.025641 0 0 1 0 210.051282z" fill="#4991f2" /><path d="M727.762051 791.131897l95.770257 73.124103a19.692308 19.692308 0 0 0 23.893333-31.310769l-95.770256-73.124103a19.692308 19.692308 0 0 0-23.893334 31.310769z" fill="#4991f2" /></svg>