<?xml version="1.0" encoding="utf-8"?>
<!-- Generator: Adobe Illustrator 22.1.0, SVG Export Plug-In . SVG Version: 6.00 Build 0)  -->
<svg version="1.1" id="图层_1" xmlns="http://www.w3.org/2000/svg" xmlns:xlink="http://www.w3.org/1999/xlink" x="0px" y="0px"
	 viewBox="0 0 16 16" style="enable-background:new 0 0 16 16;" xml:space="preserve">
<style type="text/css">
	.st0{fill:#333333;}
</style>
<title>icon5</title>
<g>
	<path class="st0" d="M13.304,6.538c-0.074-0.266-0.351-0.419-0.614-0.35c-0.267,0.073-0.424,0.348-0.351,0.615
		C12.446,7.191,12.5,7.595,12.5,8c0,2.481-2.019,4.5-4.5,4.5S3.5,10.481,3.5,8S5.519,3.5,8,3.5c0.356,0,0.709,0.042,1.052,0.124
		c0.27,0.062,0.538-0.103,0.603-0.37c0.064-0.269-0.102-0.539-0.37-0.603C8.866,2.551,8.434,2.5,8,2.5C4.967,2.5,2.5,4.967,2.5,8
		c0,3.032,2.467,5.5,5.5,5.5c3.032,0,5.5-2.468,5.5-5.5C13.5,7.505,13.434,7.013,13.304,6.538z"/>
	<path class="st0" d="M13.991,2.716l1.363-1.363c0.195-0.195,0.195-0.512,0-0.707s-0.512-0.195-0.707,0l-1.363,1.363
		C11.873,0.763,10.026,0,8,0C3.589,0,0,3.589,0,8s3.589,8,8,8s8-3.589,8-8C16,5.974,15.237,4.127,13.991,2.716z M8,15
		c-3.86,0-7-3.141-7-7c0-3.86,3.14-7,7-7c1.75,0,3.348,0.65,4.577,1.716l-4.93,4.93c-0.195,0.195-0.195,0.512,0,0.707
		C7.744,8.451,7.872,8.5,8,8.5s0.256-0.049,0.354-0.146l4.931-4.931C14.35,4.652,15,6.25,15,8C15,11.859,11.859,15,8,15z"/>
</g>
</svg>
