<?xml version="1.0" encoding="utf-8"?>
<!-- Generator: Adobe Illustrator 22.1.0, SVG Export Plug-In . SVG Version: 6.00 Build 0)  -->
<svg version="1.1" id="图层_1" xmlns="http://www.w3.org/2000/svg" xmlns:xlink="http://www.w3.org/1999/xlink" x="0px" y="0px"
	 viewBox="0 0 16 16" style="enable-background:new 0 0 16 16;" xml:space="preserve">
<style type="text/css">
	.st0{fill:#333333;}
</style>
<title>icon3</title>
<g id="icon3">
	<g id="编组">
		<g id="矩形">
			<path class="st0" d="M6.5,5h7C13.776,5,14,5.224,14,5.5S13.776,6,13.5,6h-7C6.224,6,6,5.776,6,5.5S6.224,5,6.5,5z"/>
		</g>
		<g id="矩形_1_">
			<path class="st0" d="M3.5,7C2.673,7,2,6.327,2,5.5S2.673,4,3.5,4S5,4.673,5,5.5S4.327,7,3.5,7z M3.5,5C3.224,5,3,5.224,3,5.5
				S3.224,6,3.5,6S4,5.776,4,5.5S3.776,5,3.5,5z"/>
		</g>
		<g id="矩形_2_">
			<path class="st0" d="M6.5,10h7c0.276,0,0.5,0.224,0.5,0.5S13.776,11,13.5,11h-7C6.224,11,6,10.776,6,10.5S6.224,10,6.5,10z"/>
		</g>
		<g id="矩形_3_">
			<path class="st0" d="M3.5,12C2.673,12,2,11.327,2,10.5S2.673,9,3.5,9S5,9.673,5,10.5S4.327,12,3.5,12z M3.5,10
				C3.224,10,3,10.225,3,10.5S3.224,11,3.5,11S4,10.775,4,10.5S3.776,10,3.5,10z"/>
		</g>
		<g id="矩形_4_">
			<path class="st0" d="M13.5,16h-11C1.122,16,0,14.879,0,13.5v-11C0,1.122,1.122,0,2.5,0h11C14.879,0,16,1.122,16,2.5v11
				C16,14.879,14.879,16,13.5,16z M2.5,1C1.673,1,1,1.673,1,2.5v11C1,14.327,1.673,15,2.5,15h11c0.827,0,1.5-0.673,1.5-1.5v-11
				C15,1.673,14.327,1,13.5,1H2.5z"/>
		</g>
	</g>
</g>
</svg>
