<?xml version="1.0" encoding="utf-8"?>
<!-- Generator: Adobe Illustrator 22.1.0, SVG Export Plug-In . SVG Version: 6.00 Build 0)  -->
<svg version="1.1" id="图层_1" xmlns="http://www.w3.org/2000/svg" xmlns:xlink="http://www.w3.org/1999/xlink" x="0px" y="0px"
	 viewBox="0 0 16 16" style="enable-background:new 0 0 16 16;" xml:space="preserve">
<style type="text/css">
	.st0{fill:#333333;}
</style>
<title>icon2</title>
<g id="icon2">
	<g id="编组" transform="translate(0.000000, 1.000000)">
		<path id="形状结合" class="st0" d="M9,0c1.657,0,3,1.343,3,3v2c0,1.173-0.673,2.189-1.654,2.682
			c0.346,0.078,0.687,0.189,1.018,0.331l2.818,1.208C15.285,9.693,16,10.778,16,11.978V12.5c0,1.381-1.119,2.5-2.5,2.5h-9
			C3.119,15,2,13.881,2,12.5v-0.522c0-1.2,0.715-2.285,1.818-2.757l2.818-1.208C6.968,7.871,7.308,7.76,7.655,7.681
			C6.673,7.189,6,6.173,6,5V3C6,1.343,7.343,0,9,0z M7.284,8.831L7.03,8.932L4.212,10.14c-0.686,0.294-1.147,0.944-1.206,1.679
			L3,11.978V12.5c0,0.78,0.595,1.42,1.356,1.493L4.5,14h9c0.78,0,1.42-0.595,1.493-1.356L15,12.5v-0.522
			c0-0.747-0.415-1.426-1.069-1.77l-0.144-0.068L10.97,8.932C9.796,8.429,8.477,8.395,7.284,8.831z M9,1
			C7.946,1,7.082,1.816,7.005,2.851L7,3v2c0,1.105,0.895,2,2,2c1.054,0,1.918-0.816,1.995-1.851L11,5V3C11,1.895,10.105,1,9,1z"/>
		<path id="形状结合_1_" class="st0" d="M5.411,0C5.8,0,6.167,0.099,6.489,0.275C6.207,0.416,5.955,0.609,5.745,0.839
			C5.638,0.813,5.526,0.8,5.411,0.8c-0.815,0-1.483,0.653-1.542,1.481L3.865,2.4V4c0,0.798,0.564,1.46,1.303,1.58
			c0.14,0.513,0.437,0.962,0.835,1.292c-0.64-0.106-1.301-0.04-1.918,0.193l-0.196,0.08L1.71,8.112
			C1.179,8.347,0.823,8.867,0.778,9.456L0.773,9.583V10c0,0.56,0.371,1.031,0.872,1.163l0,0.504c0,0.106,0.007,0.211,0.021,0.314
			C0.725,11.847,0,11.012,0,10V9.583c0-0.96,0.553-1.828,1.405-2.206l2.178-0.966C3.84,6.297,4.103,6.208,4.371,6.145
			C3.612,5.751,3.092,4.939,3.092,4V2.4C3.092,1.075,4.13,0,5.411,0z"/>
	</g>
</g>
</svg>
