<?xml version="1.0" encoding="utf-8"?>
<!-- Generator: Adobe Illustrator 22.1.0, SVG Export Plug-In . SVG Version: 6.00 Build 0)  -->
<svg version="1.1" id="图层_1" xmlns="http://www.w3.org/2000/svg" xmlns:xlink="http://www.w3.org/1999/xlink" x="0px" y="0px"
	 viewBox="0 0 16 16" style="enable-background:new 0 0 16 16;" xml:space="preserve">
<style type="text/css">
	.st0{fill:#333333;}
</style>
<title>运营管理</title>
<g>
	<path class="st0" d="M12.5,2h-4V1c0-0.276-0.224-0.5-0.5-0.5S7.5,0.724,7.5,1v1h-4C2.122,2,1,3.122,1,4.5v7
		C1,12.879,2.122,14,3.5,14h4v1h-5C2.224,15,2,15.224,2,15.5S2.224,16,2.5,16h11c0.276,0,0.5-0.224,0.5-0.5S13.776,15,13.5,15h-5v-1
		h4c1.379,0,2.5-1.121,2.5-2.5v-7C15,3.122,13.879,2,12.5,2z M14,11.5c0,0.827-0.673,1.5-1.5,1.5h-4h-1h-4C2.673,13,2,12.327,2,11.5
		v-7C2,3.673,2.673,3,3.5,3h9C13.327,3,14,3.673,14,4.5V11.5z"/>
	<path class="st0" d="M11.646,6.538L9.113,9.07L6.843,6.799C6.749,6.706,6.622,6.653,6.489,6.653s-0.26,0.053-0.354,0.146
		L3.511,9.424c-0.195,0.195-0.195,0.512,0,0.707s0.512,0.195,0.707,0L6.489,7.86l2.271,2.271c0.094,0.094,0.221,0.146,0.354,0.146
		s0.26-0.053,0.354-0.146l2.887-2.886c0.195-0.195,0.195-0.512,0-0.707S11.842,6.342,11.646,6.538z"/>
</g>
</svg>
