<?xml version="1.0" encoding="utf-8"?>
<!-- Generator: Adobe Illustrator 22.1.0, SVG Export Plug-In . SVG Version: 6.00 Build 0)  -->
<svg version="1.1" id="图层_1" xmlns="http://www.w3.org/2000/svg" xmlns:xlink="http://www.w3.org/1999/xlink" x="0px" y="0px"
	 viewBox="0 0 16 16" style="enable-background:new 0 0 16 16;" xml:space="preserve">
<style type="text/css">
	.st0{fill:#333333;}
</style>
<title>对接系统</title>
<g id="对接系统">
	<g id="编组" transform="translate(0.000000, 1.000000)">
		<path id="形状结合" class="st0" d="M9,0c1.105,0,2,0.895,2,2v6c0,1.105-0.895,2-2,2H7V9h2c0.513,0,0.936-0.386,0.993-0.883
			L10,8V2c0-0.513-0.386-0.936-0.883-0.993L9,1H2C1.487,1,1.064,1.386,1.007,1.883L1,2v6c0,0.513,0.386,0.936,0.883,0.993L2,9h2v1H2
			c-1.105,0-2-0.895-2-2V2c0-1.105,0.895-2,2-2H9z"/>
		<path id="形状结合_1_" class="st0" d="M14,4c1.105,0,2,0.895,2,2v6c0,1.105-0.895,2-2,2H7c-1.105,0-2-0.895-2-2V6
			c0-1.105,0.895-2,2-2h2v1H7C6.487,5,6.064,5.386,6.007,5.883L6,6v6c0,0.513,0.386,0.936,0.883,0.993L7,13h7
			c0.513,0,0.936-0.386,0.993-0.883L15,12V6c0-0.513-0.386-0.936-0.883-0.993L14,5h-2V4H14z"/>
	</g>
</g>
</svg>
