<?xml version="1.0" encoding="utf-8"?>
<!-- Generator: Adobe Illustrator 22.1.0, SVG Export Plug-In . SVG Version: 6.00 Build 0)  -->
<svg version="1.1" id="图层_1" xmlns="http://www.w3.org/2000/svg" xmlns:xlink="http://www.w3.org/1999/xlink" x="0px" y="0px"
	 viewBox="0 0 16 16" style="enable-background:new 0 0 16 16;" xml:space="preserve">
<style type="text/css">
	.st0{fill:#333333;}
</style>
<title>画像分析模板</title>
<g id="画像分析模板">
	<g id="编组" transform="translate(0.232010, 0.543884)">
		<g id="形状结合">
			<path class="st0" d="M12.768,0.456c1.105,0,2,0.895,2,2v1h-1v-1c0-0.513-0.386-0.936-0.883-0.993l-0.117-0.007h-10
				c-0.513,0-0.936,0.386-0.993,0.883L1.768,2.456v10c0,0.513,0.386,0.936,0.883,0.993l0.117,0.007h2v1h-2c-1.105,0-2-0.895-2-2v-10
				c0-1.105,0.895-2,2-2H12.768z"/>
		</g>
		<g id="形状结合_1_">
			<path class="st0" d="M10.406,3.92C9.64,3.989,9.03,4.599,8.961,5.364L8.96,5.392L8.819,5.445
				C8.433,5.603,8.071,5.813,7.742,6.069L7.629,6.161l0.105,0.054C6.97,5.774,5.994,6.036,5.553,6.799L5.482,6.936
				C5.166,7.629,5.387,8.454,6.008,8.897l0.03,0.019L6.005,9.138c-0.021,0.18-0.032,0.363-0.032,0.546l0.008,0.274
				c0.005,0.091,0.013,0.182,0.024,0.272l0.032,0.223l0.099-0.064c-0.763,0.44-1.024,1.417-0.584,2.18L5.636,12.7
				c0.442,0.621,1.267,0.842,1.961,0.525l0.032-0.018l0.113,0.093c0.329,0.255,0.691,0.465,1.077,0.623l0.14,0.052l-0.005-0.116
				c0,0.88,0.715,1.595,1.596,1.595l0.145-0.007c0.766-0.069,1.376-0.679,1.445-1.445l0.001-0.028l0.14-0.052
				c0.387-0.158,0.749-0.368,1.078-0.623l0.112-0.093l-0.103-0.053c0.763,0.44,1.739,0.179,2.18-0.585l0.071-0.137
				c0.317-0.694,0.096-1.518-0.525-1.961l-0.031-0.02l0.034-0.222c0.021-0.18,0.032-0.362,0.032-0.546L15.122,9.41
				c-0.005-0.091-0.013-0.182-0.024-0.272l-0.033-0.223L14.965,8.98c0.764-0.441,1.026-1.417,0.585-2.181L15.466,6.67
				c-0.442-0.621-1.267-0.842-1.961-0.525l-0.034,0.017l-0.113-0.093c-0.329-0.255-0.691-0.465-1.078-0.623l-0.14-0.053l0.006,0.118
				c0-0.882-0.715-1.597-1.596-1.597L10.406,3.92z M10.551,4.913c0.329,0,0.596,0.267,0.596,0.596l0,0.646
				c0.865,0.145,1.625,0.6,2.161,1.248l0.56-0.322c0.285-0.165,0.65-0.067,0.815,0.218c0.165,0.285,0.067,0.65-0.218,0.815
				l-0.559,0.322c0.145,0.389,0.224,0.809,0.224,1.249c0,0.439-0.079,0.859-0.224,1.248l0.559,0.323
				c0.285,0.165,0.383,0.529,0.218,0.815c-0.165,0.285-0.529,0.383-0.815,0.218l-0.56-0.323c-0.536,0.647-1.296,1.103-2.161,1.248
				l0,0.646c0,0.329-0.267,0.596-0.596,0.596c-0.329,0-0.596-0.267-0.596-0.596l-0.001-0.646c-0.865-0.145-1.624-0.601-2.16-1.248
				l-0.56,0.323c-0.285,0.165-0.65,0.067-0.815-0.218c-0.165-0.285-0.067-0.65,0.218-0.815l0.559-0.323
				c-0.145-0.388-0.224-0.809-0.224-1.248c0-0.439,0.079-0.86,0.224-1.249L6.637,8.114C6.352,7.949,6.254,7.584,6.419,7.299
				c0.165-0.285,0.529-0.383,0.815-0.218l0.56,0.323c0.536-0.647,1.296-1.103,2.161-1.248L9.955,5.51
				C9.955,5.18,10.222,4.913,10.551,4.913z"/>
		</g>
		<g id="椭圆形">
			<path class="st0" d="M10.551,8.352c0.736,0,1.333,0.597,1.333,1.333s-0.597,1.333-1.333,1.333s-1.333-0.597-1.333-1.333
				S9.815,8.352,10.551,8.352z M10.551,9.352c-0.184,0-0.333,0.149-0.333,0.333c0,0.184,0.149,0.333,0.333,0.333
				c0.184,0,0.333-0.149,0.333-0.333C10.885,9.501,10.735,9.352,10.551,9.352z"/>
		</g>
		<g id="直线">
			<rect x="3.768" y="3.456" class="st0" width="4" height="1"/>
		</g>
	</g>
</g>
</svg>
