<?xml version="1.0" encoding="utf-8"?>
<!-- Generator: Adobe Illustrator 22.1.0, SVG Export Plug-In . SVG Version: 6.00 Build 0)  -->
<svg version="1.1" id="图层_1" xmlns="http://www.w3.org/2000/svg" xmlns:xlink="http://www.w3.org/1999/xlink" x="0px" y="0px"
	 viewBox="0 0 16 16" style="enable-background:new 0 0 16 16;" xml:space="preserve">
<style type="text/css">
	.st0{fill:#333333;}
</style>
<title>帮助</title>
<g id="帮助">
	<g id="编组" transform="translate(1.000000, 1.000000)">
		<g id="矩形">
			<path class="st0" d="M10.031,15l-2.984-2H5c-0.534,0-1.036-0.208-1.414-0.586S3,11.534,3,11V6c0-0.534,0.208-1.036,0.586-1.414
				S4.466,4,5,4h7c0.534,0,1.036,0.208,1.414,0.586S14,5.466,14,6v5c0,0.534-0.208,1.036-0.586,1.414S12.534,13,12,13h-1.983
				L10.031,15z M5,5C4.733,5,4.482,5.104,4.293,5.293S4,5.733,4,6v5c0,0.267,0.104,0.518,0.293,0.707C4.482,11.896,4.733,12,5,12
				h2.351l1.667,1.117L9.009,12H12c0.267,0,0.518-0.104,0.707-0.293C12.896,11.518,13,11.267,13,11V6
				c0-0.267-0.104-0.518-0.293-0.707C12.518,5.104,12.267,5,12,5H5z"/>
		</g>
		<g id="形状结合">
			<path class="st0" d="M11,0c1.105,0,2,0.895,2,2v1h-1V2c0-0.513-0.386-0.936-0.883-0.993L11,1H2C1.487,1,1.064,1.386,1.007,1.883
				L1,2v7c0,0.513,0.386,0.936,0.883,0.993L2,10v1c-1.105,0-2-0.895-2-2V2c0-1.105,0.895-2,2-2H11z"/>
		</g>
	</g>
</g>
</svg>
