<?xml version="1.0" encoding="utf-8"?>
<!-- Generator: Adobe Illustrator 22.1.0, SVG Export Plug-In . SVG Version: 6.00 Build 0)  -->
<svg version="1.1" id="图层_1" xmlns="http://www.w3.org/2000/svg" xmlns:xlink="http://www.w3.org/1999/xlink" x="0px" y="0px"
	 viewBox="0 0 16 16" style="enable-background:new 0 0 16 16;" xml:space="preserve">
<style type="text/css">
	.st0{fill:#333333;}
</style>
<title>icon4</title>
<g>
	<polygon class="st0" points="1,1 5,1 5,0 0,0 0,5 1,5 	"/>
	<polygon class="st0" points="11,0 11,1 15,1 15,5 16,5 16,0 	"/>
	<path class="st0" d="M12.5,13c0,0.276,0.224,0.5,0.5,0.5s0.5-0.224,0.5-0.5c0-2.57-1.776-4.729-4.163-5.329
		C10.319,7.178,11,6.172,11,5c0-1.654-1.346-3-3-3S5,3.346,5,5c0,1.172,0.681,2.178,1.663,2.671C4.275,8.271,2.5,10.43,2.5,13
		c0,0.276,0.224,0.5,0.5,0.5s0.5-0.224,0.5-0.5c0-2.481,2.019-4.5,4.5-4.5S12.5,10.519,12.5,13z M6,5c0-1.103,0.897-2,2-2
		c1.103,0,2,0.897,2,2S9.103,7,8,7C6.897,7,6,6.103,6,5z"/>
	<polygon class="st0" points="1,11 0,11 0,16 5,16 5,15 1,15 	"/>
	<polygon class="st0" points="15,15 11,15 11,16 16,16 16,11 15,11 	"/>
</g>
</svg>
