<?xml version="1.0" encoding="utf-8"?>
<!-- Generator: Adobe Illustrator 22.1.0, SVG Export Plug-In . SVG Version: 6.00 Build 0)  -->
<svg version="1.1" id="图层_1" xmlns="http://www.w3.org/2000/svg" xmlns:xlink="http://www.w3.org/1999/xlink" x="0px" y="0px"
	 viewBox="0 0 16 16" style="enable-background:new 0 0 16 16;" xml:space="preserve">
<style type="text/css">
	.st0{fill:#333333;}
</style>
<title>icon1</title>
<g id="icon1">
	
		<g id="编组" transform="translate(8.913574, 6.777832) rotate(-315.000000) translate(-8.913574, -6.777832) translate(3.913574, -1.222168)">
		<g id="椭圆形">
			<path class="st0" d="M6.061,6.561C5.778,6.844,5.401,7,5,7C4.6,7,4.223,6.844,3.94,6.561C3.656,6.277,3.5,5.9,3.5,5.5
				C3.502,4.697,4.198,4.001,5,3.999l0,0c0.401,0,0.778,0.156,1.061,0.44C6.344,4.722,6.5,5.099,6.5,5.5
				C6.5,5.9,6.344,6.277,6.061,6.561z M4.647,5.146C4.552,5.241,4.501,5.366,4.5,5.5c0,0.134,0.052,0.259,0.146,0.354
				C4.741,5.948,4.866,6,5,6C5.268,5.999,5.5,5.767,5.5,5.5c0-0.134-0.052-0.259-0.146-0.354C5.259,5.052,5.134,5,5,5l0,0
				C4.867,5,4.741,5.052,4.647,5.146z"/>
		</g>
		<g id="矩形">
			<path class="st0" d="M5.625,0.5l4,3.2C9.862,3.89,10,4.177,10,4.481V14c0,1.105-0.895,2-2,2H2c-1.105,0-2-0.895-2-2V4.481
				C0,4.177,0.138,3.89,0.375,3.7l4-3.2C4.741,0.208,5.259,0.208,5.625,0.5z M9,4.481l-4-3.2l-4,3.2V14
				c0,0.513,0.386,0.936,0.883,0.993L2,15h6c0.513,0,0.936-0.386,0.993-0.883L9,14V4.481z"/>
		</g>
	</g>
</g>
</svg>
