<?xml version="1.0" encoding="utf-8"?>
<!-- Generator: Adobe Illustrator 22.1.0, SVG Export Plug-In . SVG Version: 6.00 Build 0)  -->
<svg version="1.1" id="图层_1" xmlns="http://www.w3.org/2000/svg" xmlns:xlink="http://www.w3.org/1999/xlink" x="0px" y="0px"
	 viewBox="0 0 16 16" style="enable-background:new 0 0 16 16;" xml:space="preserve">
<style type="text/css">
	.st0{fill:#333333;}
</style>
<title>icon6</title>
<g id="icon6">
	<g id="矩形">
		<g>
			<path class="st0" d="M7,7H3C2.198,7,1.445,6.688,0.879,6.121C0.312,5.555,0,4.802,0,4V0h4c0.802,0,1.555,0.312,2.121,0.879
				C6.688,1.445,7,2.198,7,3V7z M1,1v3c0,0.534,0.208,1.037,0.586,1.414C1.963,5.792,2.466,6,3,6h3V3
				c0-0.534-0.208-1.037-0.586-1.414C5.037,1.208,4.534,1,4,1H1z"/>
		</g>
		<g>
			<path class="st0" d="M13,7H9V3c0-0.801,0.312-1.554,0.879-2.121S11.198,0,12,0h4v4c0,0.801-0.312,1.554-0.879,2.121
				S13.802,7,13,7z M10,6h3c0.534,0,1.036-0.208,1.414-0.586S15,4.534,15,4V1h-3c-0.534,0-1.036,0.208-1.414,0.586S10,2.466,10,3V6z
				"/>
		</g>
		<g>
			<path class="st0" d="M4,16H0v-4c0-0.802,0.312-1.555,0.879-2.121S2.199,9,3,9h4v4c0,0.802-0.312,1.555-0.879,2.121S4.801,16,4,16
				z M1,15h3c0.534,0,1.036-0.208,1.414-0.586S6,13.534,6,13v-3H3c-0.534,0-1.036,0.208-1.414,0.586S1,11.466,1,12V15z"/>
		</g>
		<g>
			<path class="st0" d="M16,16h-4c-0.801,0-1.555-0.312-2.121-0.879S9,13.801,9,13V9h4c0.801,0,1.555,0.312,2.121,0.879
				S16,11.199,16,12V16z M10,10v3c0,0.534,0.208,1.036,0.586,1.414S11.466,15,12,15h3v-3c0-0.534-0.208-1.036-0.586-1.414
				S13.534,10,13,10H10z"/>
		</g>
	</g>
</g>
</svg>
